<svg width="256" height="256" viewBox="0 0 256 256" fill="none" xmlns="http://www.w3.org/2000/svg">
<rect width="256" height="256" rx="44" fill="#302B53"/>
<path d="M81.4168 34.0015C81.6896 34.001 81.9623 34.0005 82.2432 34C82.5453 34.0007 82.8473 34.0015 83.1585 34.0022C83.4774 34.002 83.7964 34.0018 84.125 34.0016C85.0131 34.001 85.9013 34.002 86.7895 34.0033C87.7462 34.0044 88.7029 34.004 89.6596 34.0038C91.3182 34.0037 92.9767 34.0045 94.6352 34.0059C97.0332 34.008 99.4311 34.0086 101.829 34.0089C105.719 34.0095 109.61 34.0112 113.5 34.0136C117.28 34.0159 121.059 34.0177 124.839 34.0188C125.072 34.0188 125.305 34.0189 125.545 34.019C126.713 34.0193 127.881 34.0196 129.049 34.0199C138.745 34.0226 148.441 34.027 158.136 34.0327C158.136 34.1998 158.136 34.367 158.136 34.5392C158.352 34.5352 158.352 34.5352 158.572 34.5311C161.062 34.4914 163.474 34.4625 165.931 34.9191C166.906 35.0703 167.867 35.115 168.852 35.1565C170.668 35.2384 172.392 35.5064 174.171 35.8766C174.845 36.0081 175.49 36.1088 176.169 36.1843C177.765 36.3963 178.923 36.9323 179.951 38.1959C180.872 39.4739 180.975 40.7012 181.083 42.2405C181.108 42.5153 181.132 42.7901 181.158 43.0732C181.235 43.9477 181.304 44.8226 181.372 45.6979C181.445 46.5643 181.52 47.4306 181.596 48.2969C181.644 48.8574 181.692 49.4179 181.738 49.9785C181.887 51.7433 182.089 53.4879 182.339 55.2412C182.558 56.8961 182.647 58.5624 182.755 60.2274C182.849 61.5692 182.98 62.8797 183.215 64.2047C183.461 65.5941 183.559 66.9547 183.603 68.3634C183.619 68.8017 183.635 69.24 183.652 69.6782C183.658 69.867 183.664 70.0559 183.67 70.2505C183.699 70.8066 183.699 70.8066 183.968 71.5132C184.014 71.9548 184.048 72.3977 184.076 72.8408C184.095 73.1085 184.113 73.3762 184.131 73.652C184.15 73.9386 184.169 74.2252 184.189 74.5205C184.377 77.1801 184.677 79.8003 185.085 82.4345C185.234 83.4158 185.234 83.4158 185.234 83.9223C185.474 83.985 185.714 84.0477 185.962 84.1122C186.983 84.4007 187.947 84.8 188.924 85.2133C189.548 85.4452 190.15 85.5819 190.805 85.695C190.805 85.8622 190.805 86.0293 190.805 86.2015C192.393 86.2851 193.981 86.3687 195.617 86.4548C195.617 86.6219 195.617 86.7891 195.617 86.9613C195.878 86.9583 196.14 86.9554 196.409 86.9524C199.614 86.9286 202.799 87.0602 206 87.2145C206 90.5574 206 93.9002 206 97.3444C202.846 98.315 199.993 99.0946 196.745 99.4891C196.02 99.6005 195.426 99.7441 194.746 100.003C193.704 100.394 192.649 100.547 191.549 100.684C191.298 100.716 191.298 100.716 191.042 100.748C189.857 100.885 188.703 100.907 187.513 100.89C187.513 101.057 187.513 101.224 187.513 101.396C187.239 101.429 187.239 101.429 186.959 101.462C186.136 101.56 185.313 101.66 184.49 101.76C184.202 101.794 183.914 101.829 183.618 101.864C183.208 101.914 183.208 101.914 182.789 101.965C182.536 101.996 182.283 102.026 182.022 102.058C181.446 102.096 181.446 102.096 181.182 102.409C179.062 102.93 176.925 103.245 174.759 103.481C171.952 103.791 169.158 104.233 166.397 104.823C165.277 105.024 164.146 105.147 163.016 105.272C162.148 105.304 162.148 105.304 161.429 105.702C159.317 106.226 157.151 106.355 154.987 106.493C154.518 106.526 154.518 106.526 154.04 106.559C152.11 106.688 150.194 106.743 148.26 106.715C148.26 106.882 148.26 107.049 148.26 107.221C147.779 107.242 147.779 107.242 147.288 107.263C146.094 107.316 144.899 107.37 143.705 107.423C143.189 107.447 142.672 107.469 142.156 107.492C141.413 107.525 140.669 107.558 139.925 107.592C139.582 107.607 139.582 107.607 139.231 107.622C137.154 107.571 137.154 107.571 135.344 108.234C134.861 108.274 134.376 108.298 133.891 108.314C133.586 108.325 133.281 108.335 132.967 108.346C132.475 108.361 132.475 108.361 131.973 108.376C131.642 108.387 131.311 108.398 130.971 108.409C128.291 108.491 125.615 108.515 122.935 108.487C122.935 108.654 122.935 108.822 122.935 108.994C111.896 109.092 111.896 109.092 107.298 108.615C105.633 108.442 103.963 108.387 102.289 108.343C100.989 108.299 99.7847 108.127 98.5137 107.852C97.1337 107.588 95.7263 107.525 94.3271 107.421C92.9158 107.306 91.6336 107.078 90.2662 106.715C89.8139 106.655 89.36 106.606 88.905 106.572C87.7855 106.487 87.7855 106.487 87.2273 106.208C86.8089 106.158 86.3891 106.12 85.969 106.088C82.5988 105.792 79.5431 105.208 76.3299 104.144C74.3901 103.505 72.5587 103.065 70.513 102.916C70.513 102.749 70.513 102.582 70.513 102.409C69.6773 102.326 68.8416 102.242 67.9805 102.156C67.9805 101.989 67.9805 101.822 67.9805 101.65C67.6515 101.613 67.3224 101.576 66.9834 101.539C66.7744 101.515 66.5655 101.49 66.3502 101.466C65.9447 101.422 65.5384 101.386 65.1315 101.359C64.0783 101.28 63.2356 101.094 62.2666 100.668C60.9613 100.102 59.6574 99.8603 58.2611 99.6336C57.3048 99.4752 56.4556 99.2641 55.5714 98.8639C55.5714 98.6967 55.5714 98.5296 55.5714 98.3574C55.432 98.328 55.2926 98.2986 55.149 98.2683C54.4639 98.0778 53.8574 97.8034 53.2131 97.5027C52.1482 97.0075 51.0809 96.5414 50 96.0781C50 93.1531 50 90.2281 50 87.2145C54.0611 87.4852 54.0611 87.4852 55.7099 87.8534C56.9172 88.0882 58.1451 88.1529 59.3701 88.2433C59.8872 88.2823 60.4043 88.3221 60.9213 88.363C61.1465 88.3797 61.3718 88.3964 61.6038 88.4135C62.1558 88.4807 62.1558 88.4807 62.6623 88.734C63.1763 88.7904 63.6918 88.8334 64.2075 88.8695C64.6678 88.9026 64.6678 88.9026 65.1374 88.9363C65.6202 88.9693 65.6202 88.9693 66.1128 89.0031C66.4367 89.0261 66.7605 89.0491 67.0942 89.0728C67.896 89.1297 68.698 89.1855 69.5 89.2405C69.514 89.0043 69.528 88.7681 69.5425 88.5247C69.5952 87.6416 69.6486 86.7585 69.7025 85.8755C69.7256 85.4946 69.7484 85.1136 69.771 84.7327C69.8036 84.1825 69.8372 83.6325 69.871 83.0824C69.8909 82.7522 69.9108 82.422 69.9312 82.0817C70.0041 81.167 70.1297 80.272 70.2597 79.3639C70.3294 78.6412 70.3816 77.9176 70.4329 77.1935C70.448 76.9852 70.4631 76.7769 70.4787 76.5624C70.5278 75.8818 70.5759 75.2012 70.6238 74.5205C70.6488 74.17 70.6488 74.17 70.6744 73.8125C70.8582 71.2374 71.0299 68.6624 71.1639 66.0842C71.1748 65.8753 71.1857 65.6665 71.1969 65.4512C71.2473 64.4696 71.2953 63.4879 71.3399 62.506C71.3574 62.147 71.3749 61.7879 71.3924 61.4288C71.4062 61.1252 71.4199 60.8216 71.434 60.5087C71.4888 59.655 71.5944 58.8117 71.7072 57.9639C71.9963 55.7876 72.1399 53.631 72.2125 51.4355C72.2261 51.0827 72.24 50.73 72.2542 50.3773C72.3131 48.9025 72.369 47.4277 72.419 45.9526C72.4501 45.0413 72.4857 44.1304 72.5242 43.2194C72.5444 42.7112 72.5596 42.2028 72.5746 41.6944C72.6586 39.7581 72.7852 38.1354 74.1892 36.6712C75.1709 35.8054 75.1709 35.8054 75.8312 35.8054C75.8312 35.6383 75.8312 35.4711 75.8312 35.2989C76.0995 35.2287 76.3679 35.1585 76.6443 35.0862C76.9958 34.9936 77.3474 34.9009 77.6989 34.8083C77.9643 34.739 77.9643 34.739 78.235 34.6683C80.7576 34.0013 80.7576 34.0013 81.4168 34.0015Z" fill="#F4EBF9"/>
<path d="M72.0325 118.69C108.553 118.69 145.074 118.69 182.701 118.69C182.701 122.699 182.701 122.699 182.48 124.341C182.457 124.511 182.434 124.681 182.411 124.856C182.262 125.936 182.06 126.992 181.8 128.051C181.6 128.974 181.525 129.907 181.435 130.846C181.268 130.846 181.101 130.846 180.929 130.846C180.952 131.191 180.952 131.191 180.976 131.543C180.979 133.196 180.444 134.834 179.925 136.39C179.735 136.96 179.561 137.536 179.398 138.114C178.772 140.328 178.009 142.147 176.623 144.015C176.522 144.175 176.42 144.334 176.315 144.499C175.166 146.116 173.219 146.921 171.505 147.821C171.127 148.026 170.763 148.255 170.403 148.489C169.625 148.915 168.898 149.057 168.029 149.222C166.767 149.464 166.767 149.464 165.544 149.847C164.6 150.129 163.808 150.157 162.823 150.158C162.639 150.159 162.456 150.16 162.266 150.161C161.66 150.163 161.054 150.162 160.447 150.16C160.02 150.161 159.593 150.161 159.165 150.162C158.268 150.162 157.37 150.161 156.473 150.159C155.339 150.156 154.206 150.158 153.072 150.161C145.088 150.178 145.088 150.178 141.645 149.872C141.431 149.853 141.217 149.834 140.996 149.815C139.029 149.605 137.636 148.961 136.12 147.703C135.375 146.778 134.838 145.982 134.838 144.775C134.671 144.775 134.503 144.775 134.331 144.775C134.011 143.49 133.756 142.311 133.825 140.976C133.658 140.976 133.49 140.976 133.318 140.976C133.288 140.738 133.257 140.499 133.225 140.254C133.183 139.939 133.14 139.623 133.097 139.298C133.055 138.987 133.014 138.675 132.972 138.355C132.823 137.494 132.591 136.734 132.305 135.911C132.224 135.512 132.15 135.11 132.084 134.708C131.824 133.34 131.334 132.121 130.786 130.846C130.702 130.627 130.619 130.408 130.533 130.182C130.168 129.316 129.761 128.887 129.013 128.314C127.873 127.963 126.94 128.012 125.784 128.282C123.674 129.662 123.276 132.295 122.785 134.622C122.522 135.972 122.337 137.332 122.175 138.697C122.008 138.697 121.841 138.697 121.669 138.697C121.679 138.948 121.69 139.199 121.701 139.458C121.667 140.544 121.463 141.444 121.162 142.48C121.114 142.653 121.066 142.826 121.016 143.004C120.898 143.426 120.777 143.847 120.656 144.268C120.489 144.268 120.322 144.268 120.149 144.268C120.139 144.477 120.128 144.686 120.118 144.901C119.737 146.426 118.998 147.423 117.662 148.263C113.857 150.218 110.012 150.138 105.838 150.162C105.617 150.164 105.396 150.165 105.168 150.166C103.999 150.173 102.83 150.178 101.661 150.182C100.704 150.185 99.7469 150.192 98.7899 150.202C97.6222 150.215 96.4546 150.221 95.2868 150.223C94.8471 150.225 94.4075 150.228 93.9679 150.235C90.911 150.275 88.338 149.845 85.4546 148.827C85.2046 148.74 84.9547 148.653 84.6972 148.564C82.187 147.659 79.986 146.403 78.3637 144.268C78.1965 144.185 78.0294 144.101 77.8572 144.015C77.1815 143.058 76.8789 142.106 76.5909 140.976C76.4238 140.976 76.2566 140.976 76.0844 140.976C76.0355 140.753 75.9865 140.53 75.936 140.3C75.8701 140.006 75.8042 139.712 75.7362 139.409C75.6716 139.118 75.6069 138.827 75.5404 138.528C75.3512 137.787 75.1027 137.124 74.8182 136.418C74.7865 135.705 74.7865 135.705 74.8182 135.151C74.6511 135.151 74.4839 135.151 74.3117 135.151C73.7953 133.234 73.4579 131.347 73.2512 129.374C73.2301 129.175 73.2089 128.975 73.1871 128.77C73.0643 127.515 73.0268 126.283 73.0455 125.021C72.8783 125.021 72.7112 125.021 72.539 125.021C72.4533 124.299 72.3691 123.576 72.2857 122.853C72.2616 122.65 72.2374 122.448 72.2125 122.239C72.1897 122.039 72.1668 121.839 72.1433 121.633C72.1221 121.452 72.1008 121.27 72.079 121.083C72.0193 120.287 72.0325 119.488 72.0325 118.69Z" fill="#F4EBF9"/>
<path d="M125.984 168.683C127.809 168.731 129.355 168.875 131.039 169.593C131.769 169.836 132.229 169.873 132.986 169.862C133.191 169.86 133.395 169.857 133.606 169.855C133.762 169.852 133.918 169.849 134.078 169.846C134.162 169.595 134.245 169.345 134.331 169.086C134.666 169.086 135 169.086 135.344 169.086C135.344 169.254 135.344 169.421 135.344 169.593C136.382 169.834 137.383 169.895 138.447 169.941C140.347 170.049 141.904 170.31 143.48 171.413C144.388 171.985 144.926 172.011 145.981 171.872C146.473 171.529 146.473 171.529 146.74 171.112C147.975 171.587 147.975 171.587 148.26 171.872C148.781 171.954 149.304 172.026 149.827 172.094C151.066 172.274 152.014 172.473 153.072 173.138C153.072 173.306 153.072 173.473 153.072 173.645C153.306 173.641 153.306 173.641 153.545 173.638C155.451 173.705 156.558 174.314 157.883 175.671C159.025 177.087 159.708 178.821 160.416 180.483C160.503 180.673 160.591 180.864 160.682 181.061C161.138 182.365 161.007 183.753 161.001 185.12C161.001 185.599 161.001 185.599 161 186.087C160.979 188.146 160.791 190.035 160.332 192.037C160.074 193.337 160.095 194.612 160.162 195.931C160.33 195.931 160.497 195.931 160.669 195.931C161.472 199.975 161.385 203.943 159.909 207.833C159.742 207.833 159.575 207.833 159.403 207.833C159.364 208.17 159.364 208.17 159.324 208.514C159.017 209.992 158.25 210.906 157.123 211.885C156.554 212.225 155.976 212.538 155.389 212.847C154.726 213.218 154.165 213.684 153.578 214.164C153.411 214.164 153.244 214.164 153.072 214.164C153.072 214.331 153.072 214.499 153.072 214.671C152.004 215.497 150.823 215.697 149.526 215.937C149.526 216.104 149.526 216.271 149.526 216.444C149.286 216.464 149.046 216.485 148.798 216.507C148.537 216.57 148.276 216.632 148.007 216.697C147.907 216.927 147.907 216.927 147.805 217.162C147.349 217.981 146.724 218.17 145.886 218.565C145.564 218.718 145.243 218.872 144.921 219.025C144.759 219.102 144.597 219.178 144.431 219.256C143.722 219.593 143.024 219.95 142.324 220.306C141.857 220.542 141.387 220.774 140.916 221.002C140.688 221.132 140.46 221.262 140.226 221.397C138.685 222.047 136.934 221.876 135.29 221.872C134.91 221.873 134.531 221.874 134.151 221.876C133.356 221.878 132.561 221.877 131.766 221.875C130.759 221.872 129.752 221.877 128.745 221.884C127.96 221.889 127.176 221.889 126.391 221.887C126.02 221.887 125.65 221.889 125.279 221.892C122.571 221.912 120.207 221.502 117.617 220.749C117.289 220.66 117.289 220.66 116.955 220.568C115.172 220.078 113.491 219.575 111.97 218.494C111.481 218.152 111.481 218.152 110.589 217.916C109.525 217.554 108.72 216.884 107.867 216.174C107.73 216.061 107.593 215.947 107.452 215.831C107.115 215.541 106.793 215.234 106.474 214.924C106.474 214.757 106.474 214.59 106.474 214.418C106.14 214.334 105.806 214.25 105.461 214.164C105.461 213.997 105.461 213.83 105.461 213.658C105.242 213.604 105.024 213.549 104.798 213.494C103.783 213.088 103.136 212.5 102.391 211.727C102.257 211.588 102.123 211.45 101.985 211.308C99.2805 208.44 99.0545 204.64 99.0291 200.835C99.0805 199.856 99.2989 198.932 99.5118 197.976C99.9333 196.024 99.9899 194.135 99.9609 192.143C99.9529 191.585 99.9505 191.028 99.9491 190.47C99.9428 188.375 99.9428 188.375 99.6364 186.307C99.4306 183.215 99.9345 181.501 101.758 179.038C102.18 178.481 102.18 178.481 102.419 177.895C102.675 177.444 102.675 177.444 103.593 177.127C103.875 177.064 104.158 177.002 104.448 176.937C104.448 176.686 104.448 176.436 104.448 176.177C104.281 176.177 104.114 176.177 103.942 176.177C104.076 175.21 104.321 174.642 104.955 173.898C105.372 173.982 105.79 174.065 106.221 174.151C106.221 174.318 106.221 174.486 106.221 174.658C108.205 174.486 109.423 173.785 110.969 172.551C111.539 172.125 111.539 172.125 112.046 172.125C112.046 171.958 112.046 171.791 112.046 171.619C112.915 171.039 113.2 171.069 114.214 171.112C114.94 171.155 114.94 171.155 115.591 171.112C115.758 170.945 115.925 170.778 116.097 170.606C117.409 170.048 118.737 169.743 120.149 169.593C120.149 169.426 120.149 169.259 120.149 169.086C120.846 169.023 120.846 169.023 121.669 169.086C121.831 169.254 121.993 169.421 122.16 169.593C122.671 170.186 122.671 170.186 123.584 170.242C123.871 170.195 124.159 170.148 124.455 170.099C124.563 169.89 124.672 169.681 124.784 169.465C125.214 168.833 125.214 168.833 125.984 168.683Z" fill="#F4EBF9"/>
<path d="M119.389 182.255C119.557 182.422 119.724 182.59 119.896 182.762C120.454 182.806 121.014 182.83 121.574 182.841C123.042 182.919 123.861 183.141 125.026 184.006C125.762 184.465 126.407 184.396 127.24 184.281C127.491 184.114 127.741 183.947 128 183.775C128.492 183.713 128.492 183.713 129.046 183.716C129.251 183.717 129.455 183.717 129.666 183.718C129.878 183.721 130.091 183.724 130.311 183.727C130.621 183.727 130.621 183.727 130.938 183.728C132.339 183.738 133.701 183.853 135.091 184.028C135.174 183.777 135.258 183.527 135.344 183.268C136.839 181.928 138.539 182.254 140.425 182.334C140.843 182.348 140.843 182.348 141.27 182.362C141.671 182.378 141.671 182.378 142.08 182.395C142.324 182.404 142.568 182.414 142.82 182.424C143.448 182.509 143.448 182.509 144.208 183.015C145.017 183.132 145.017 183.132 145.901 183.173C146.2 183.192 146.499 183.211 146.806 183.231C147.035 183.243 147.264 183.255 147.5 183.268C147.5 183.435 147.5 183.603 147.5 183.775C147.766 183.79 148.033 183.806 148.307 183.822C149.438 184.063 149.803 184.428 150.539 185.294C150.622 185.378 150.706 185.461 150.792 185.547C150.823 185.798 150.855 186.049 150.887 186.307C151.071 187.704 151.568 188.995 152.08 190.302C152.804 192.176 153.184 193.665 152.39 195.615C150.952 198.082 148.698 200.149 145.98 200.996C145.73 200.996 145.479 200.996 145.221 200.996C145.221 201.163 145.221 201.33 145.221 201.502C144.54 201.629 144.54 201.629 143.701 201.502C143.295 201.01 143.006 200.508 142.708 199.944C142.468 199.435 142.468 199.435 141.928 199.223C141.768 198.644 141.768 198.644 141.643 197.941C141.58 197.592 141.58 197.592 141.515 197.235C141.484 197.056 141.453 196.876 141.422 196.69C141.255 196.69 141.088 196.69 140.915 196.69C140.832 196.189 140.748 195.687 140.662 195.171C140.495 195.171 140.328 195.171 140.156 195.171C140.005 194.831 140.005 194.831 139.851 194.483C139.125 193.155 138.012 192.332 136.863 191.372C136.639 191.165 136.639 191.165 136.41 190.954C135.275 189.989 134.191 189.956 132.728 189.938C131.948 189.84 131.785 189.677 131.292 189.093C130.074 188.555 129.054 188.52 127.747 188.586C127.621 188.712 127.621 188.712 127.493 188.84C127.047 188.941 126.598 189.028 126.148 189.109C125.903 189.153 125.659 189.198 125.407 189.244C124.708 189.346 124.708 189.346 123.695 189.346C123.695 189.513 123.695 189.68 123.695 189.853C123.381 189.968 123.068 190.082 122.745 190.201C121.347 190.632 121.347 190.632 120.402 191.625C120.235 191.625 120.068 191.625 119.896 191.625C119.896 191.793 119.896 191.96 119.896 192.132C119.729 192.132 119.562 192.132 119.389 192.132C119.365 192.3 119.34 192.468 119.314 192.641C119.075 194.053 118.804 194.826 117.87 195.931C116.968 197.722 117.028 199.538 117.11 201.502C116.236 201.626 115.448 201.675 114.578 201.502C113.9 200.922 113.452 200.274 113.058 199.476C113.058 199.309 113.058 199.142 113.058 198.97C112.807 198.97 112.557 198.97 112.298 198.97C112.173 198.719 112.173 198.719 112.045 198.463C111.555 198.277 111.065 198.093 110.57 197.921C110.046 197.714 109.621 197.47 109.149 197.165C108.444 196.737 107.87 196.607 107.051 196.534C106.847 196.515 106.644 196.496 106.434 196.476C106.28 196.463 106.126 196.45 105.967 196.437C105.945 195.556 105.932 194.675 105.92 193.794C105.913 193.547 105.907 193.301 105.901 193.046C105.884 191.416 106.1 190.095 106.727 188.586C106.894 188.586 107.061 188.586 107.234 188.586C107.234 188.346 107.234 188.106 107.234 187.858C107.435 186.408 108.493 185.27 109.513 184.281C110.641 183.633 111.867 183.665 113.137 183.616C113.455 183.602 113.455 183.602 113.779 183.587C114.298 183.563 114.818 183.542 115.337 183.521C115.421 183.271 115.505 183.02 115.591 182.762C116.879 182.34 118.025 182.146 119.389 182.255Z" fill="#302B53"/>
</svg>
